<svg width="101" height="94" viewBox="0 0 101 94" fill="none" xmlns="http://www.w3.org/2000/svg">
<path d="M90.9557 91.9321C93.4035 94.1657 97.1985 93.9921 99.4321 91.5443C101.666 89.0965 101.492 85.3015 99.0443 83.0679L90.9557 91.9321ZM60 36C60 49.2548 49.2548 60 36 60V72C55.8823 72 72 55.8823 72 36H60ZM36 60C22.7452 60 12 49.2548 12 36H0C0 55.8823 16.1177 72 36 72V60ZM12 36C12 22.7452 22.7452 12 36 12V0C16.1177 0 0 16.1177 0 36H12ZM36 12C49.2548 12 60 22.7452 60 36H72C72 16.1177 55.8823 0 36 0V12ZM50.9557 55.4321L90.9557 91.9321L99.0443 83.0679L59.0443 46.5679L50.9557 55.4321Z" fill="#0A66C2"/>
</svg>
